# xmcd CD database file
#
# Track frame offsets:
#	150
#	16123
#	32769
#	52208
#	71001
#	88381
#	107450
#	124096
#	142054
#	161088
#	177629
#	198816
#	217165
#	236978
#	260398
#	280497
#	303634
#	325947
#
# Disc length: 4658 seconds
#
# Revision: 1
# Processed by: cddbd v1.5.2PL0 Copyright (c) Steve Scherf et al.
# Submitted via: CDex 1.79
#
DISCID=1d123012
DTITLE=Cosa Nuestra - Pregoneros de la Calle CD1
DYEAR=2010
DGENRE=Salsa
TTITLE0=La Rumba pal Bailador
TTITLE1=Anacaona
TTITLE2=Toro Mata
TTITLE3=La Chola Caderona
TTITLE4=Que voy a hacer sin ti
TTITLE5=Saca las Manos
TTITLE6=Ella es
TTITLE7=El que no tiene de Inga
TTITLE8=Tiempo del Amor
TTITLE9=Comadre Cocoliche
TTITLE10=Amiga
TTITLE11=Sonero de Callejon
TTITLE12=Abran Paso
TTITLE13=Los Entierros
TTITLE14=Irimo
TTITLE15=Isadora Duncan
TTITLE16=Necesito una Amiga
TTITLE17=Aguzate
EXTD=YEAR: 2010
EXTT0=
EXTT1=
EXTT2=
EXTT3=
EXTT4=
EXTT5=
EXTT6=
EXTT7=
EXTT8=
EXTT9=
EXTT10=
EXTT11=
EXTT12=
EXTT13=
EXTT14=
EXTT15=
EXTT16=
EXTT17=
PLAYORDER=
